<svg width="361" height="36" viewBox="0 0 361 36" fill="none" xmlns="http://www.w3.org/2000/svg">
<path fill-rule="evenodd" clip-rule="evenodd" d="M0 17.9999C0 8.4781 7.71894 0.759155 17.2407 0.759155H82.6851C90.4113 0.759155 96.9505 5.8413 99.142 12.845C99.4968 13.9787 100.497 14.8335 101.685 14.8335C102.873 14.8335 103.874 13.9787 104.229 12.845C106.42 5.84144 112.959 0.759396 120.685 0.759396H343.759C353.281 0.759396 361 8.47834 361 18.0001C361 27.5219 353.281 35.2409 343.759 35.2409H120.685C112.959 35.2409 106.42 30.1589 104.229 23.1553C103.874 22.0217 102.873 21.1668 101.685 21.1668C100.497 21.1668 99.4967 22.0216 99.1419 23.1553C96.9501 30.1587 90.4111 35.2406 82.6852 35.2406H17.2408C7.71896 35.2406 0 27.5217 0 17.9999ZM205.43 25.818C204.222 25.818 203.277 25.6481 202.598 25.3042C201.916 24.9623 201.441 24.4506 201.169 23.7648C200.897 23.0811 200.761 22.236 200.761 21.2253V15.5073C200.761 13.8659 201.127 12.6557 201.859 11.8785C202.59 11.1014 203.781 10.7107 205.433 10.7107H213.113C214.287 10.7107 215.183 10.7744 215.805 10.9039C216.425 11.0313 216.737 11.1651 216.737 11.301L216.227 13.4285C215.939 13.3776 215.083 13.3224 213.663 13.2608C212.242 13.2013 210.18 13.1716 207.475 13.1716H206.174C204.813 13.1716 204.133 13.7789 204.133 14.9934V21.5332C204.133 22.115 204.282 22.563 204.579 22.8794C204.876 23.1957 205.409 23.3529 206.174 23.3529H207.22C210.044 23.3529 212.236 23.3231 213.792 23.2637C215.348 23.2042 216.315 23.1405 216.688 23.0705L217.735 24.7627C217.735 24.8477 217.595 24.9772 217.315 25.1471C217.034 25.319 216.518 25.4719 215.771 25.6078C215.021 25.7437 213.943 25.8138 212.531 25.8138H205.437L205.43 25.818ZM148.526 25.8173V12.7908L148.271 10.7142H159.576C160.665 10.7142 161.519 10.8607 162.141 11.1495C162.761 11.4404 163.222 11.8205 163.519 12.2897C163.816 12.7611 164.007 13.2601 164.092 13.7909C164.177 14.3217 164.22 14.8249 164.22 15.3048V16.8187C164.22 17.2115 164.16 17.6532 164.041 18.1394C163.922 18.6257 163.701 19.097 163.379 19.5493C163.056 20.0016 162.587 20.3795 161.975 20.6768C161.364 20.9761 160.563 21.1248 159.576 21.1248H156.973C155.9 21.1248 154.9 21.0993 153.975 21.0483C153.047 20.9974 152.355 20.9549 151.896 20.9209V25.8194H148.528L148.526 25.8173ZM151.894 18.6617H158.835C159.601 18.6617 160.128 18.4728 160.417 18.097C160.705 17.7211 160.85 17.2689 160.85 16.738V15.1222C160.85 14.5744 160.705 14.1136 160.417 13.7378C160.128 13.362 159.608 13.173 158.86 13.173H151.894V18.6617ZM124.181 25.8182C123.024 25.8182 122.174 25.7673 121.629 25.6654C121.085 25.5634 120.811 25.4424 120.811 25.3065L121.832 23.0749C122.223 23.1429 123.198 23.2066 124.754 23.2682C126.31 23.3276 128.451 23.3573 131.173 23.3573H131.657C132.387 23.3573 132.908 23.2257 133.213 22.9603C133.519 22.6949 133.672 22.2468 133.672 21.6141V21.1003C133.672 20.5015 133.549 20.0747 133.302 19.8178C133.056 19.5609 132.506 19.4335 131.657 19.4335H125.737C124.019 19.4335 122.769 19.1129 121.985 18.4716C121.202 17.8304 120.811 16.7836 120.811 15.3291V14.9193C120.811 14.1677 120.951 13.4755 121.231 12.8427C121.512 12.21 121.992 11.7025 122.673 11.3161C123.353 10.9318 124.289 10.7385 125.48 10.7385H132.421C133.578 10.7385 134.513 10.798 135.228 10.919C135.944 11.0379 136.301 11.1675 136.301 11.3033L135.791 13.4585C135.349 13.4075 134.345 13.3523 132.78 13.2908C131.215 13.2313 129.113 13.2016 126.476 13.2016L126.196 13.1761C125.412 13.1761 124.886 13.3353 124.614 13.6496C124.342 13.966 124.196 14.363 124.181 14.8429V15.2782C124.181 15.843 124.338 16.2655 124.652 16.5479C124.966 16.8303 125.491 16.9704 126.221 16.9704H131.886C132.975 16.9704 133.903 17.0809 134.668 17.3038C135.434 17.5267 136.02 17.9323 136.428 18.5226C136.836 19.1129 137.039 19.9813 137.039 21.1257V21.5355C137.039 22.818 136.712 23.8521 136.056 24.6377C135.4 25.4233 134.266 25.8182 132.651 25.8182H124.181ZM179.35 10.7382L171.874 25.8179H175.598L177.257 22.5607H186.393L187.898 25.8179H191.829L184.378 10.7382H179.35ZM185.45 20.0489H178.18L181.701 13.0483H181.955L185.45 20.0489ZM227.938 10.7382V25.8179H241.871C242.994 25.8179 243.786 25.7881 244.245 25.7287C244.704 25.6671 244.933 25.6034 244.933 25.5355L243.912 23.3548H231.306V19.2781H240.85V16.7386H231.306V13.1991H243.81V10.7382H227.938ZM260.269 25.8173L260.244 13.1751H253.609V10.7142H270.298V13.1751H263.637V25.8173H260.269ZM280.505 10.7382V25.8179H283.872V10.7382H280.505ZM295.867 25.8177V12.7912L295.612 10.7401H299.491L305.258 20.9978L311.229 10.7401H314.673V25.8198H311.305V16.2543H311.025L310.029 18.4859L306.814 24.2825H303.727L300.513 18.4859L299.491 16.2543H299.236V25.8198H295.869L295.867 25.8177ZM326.412 10.7382V25.8179H340.345C341.468 25.8179 342.26 25.7881 342.719 25.7287C343.178 25.6671 343.407 25.6034 343.407 25.5355L342.386 23.3548H329.78V19.2781H339.324V16.7386H329.78V13.1991H342.284V10.7382H326.412ZM22.5053 13.9482V17.5947V17.5966L17.6433 19.5598L22.5053 21.5328V25.1832L13.0201 21.4369H13.0006V17.6964H13.0201L22.5053 13.9482ZM77.7644 24.9895V21.345L82.6224 19.3838L77.7644 17.4225V13.776L87.2358 17.5204H87.2593V21.2647H87.2358L77.7644 24.9895ZM73.697 8.6224L68.1265 27.6143H71.4344L77.0049 8.6224H73.697ZM37.8214 17.2912C37.8801 15.8056 37.3849 14.3572 36.4434 13.2591H36.4454C35.9795 12.7404 35.4139 12.3333 34.7875 12.0652C34.1612 11.797 33.4898 11.6757 32.8145 11.705C32.0903 11.6717 31.3681 11.797 30.6908 12.071C30.0136 12.3451 29.3951 12.7639 28.8764 13.3002V12.1004H25.5685V25.3808H28.8764V19.4991C28.8764 16.4476 29.9118 14.9229 31.9827 14.9229C32.3291 14.9072 32.6756 14.9757 32.9946 15.1225C33.3117 15.2693 33.5955 15.4924 33.8226 15.7723C34.306 16.4124 34.5526 17.2168 34.5135 18.035V25.3808H37.8214V17.2912ZM42.0314 6.5771V25.569H45.3393V6.5771H42.0314ZM61.2699 24.8724H64.0277L68.6685 11.5685H65.1336L62.5284 19.5505L59.8449 11.5685H57.2652L54.5817 19.525L51.9765 11.5685H48.4416L53.0785 24.8724H55.8344L58.5648 17.049L61.2699 24.8724Z" fill="url(#paint0_linear_941_8812)"/>
<defs>
<linearGradient id="paint0_linear_941_8812" x1="5.98148" y1="-10.7105" x2="406.255" y2="-10.7105" gradientUnits="userSpaceOnUse">
<stop offset="0.251308" stop-color="#996DFF"/>
<stop offset="0.623787" stop-color="#FF876E"/>
<stop offset="1" stop-color="#FFD072"/>
</linearGradient>
</defs>
</svg>
